<svg xmlns="http://www.w3.org/2000/svg" width="1440" height="2000"><path d="M642,988L395,1074L524,1109Z" fill="#c2bfd9" stroke="#c2bfd9" stroke-width="1.51"/><path d="M642,988L452,804L395,1074Z" fill="#aabfe5" stroke="#aabfe5" stroke-width="1.51"/><path d="M452,804L343,731L395,1074Z" fill="#789fd7" stroke="#789fd7" stroke-width="1.51"/><path d="M642,988L728,758L452,804Z" fill="#b2c4e7" stroke="#b2c4e7" stroke-width="1.51"/><path d="M452,804L705,560L343,731Z" fill="#6092d3" stroke="#6092d3" stroke-width="1.51"/><path d="M395,1074L480,1298L524,1109Z" fill="#b89bb5" stroke="#b89bb5" stroke-width="1.51"/><path d="M524,1109L791,1299L642,988Z" fill="#eccbcd" stroke="#eccbcd" stroke-width="1.51"/><path d="M957,1170L853,816L642,988Z" fill="#fdddd6" stroke="#fdddd6" stroke-width="1.51"/><path d="M642,988L853,816L728,758Z" fill="#d9d8e9" stroke="#d9d8e9" stroke-width="1.51"/><path d="M128,1371L372,1330L395,1074Z" fill="#af7690" stroke="#af7690" stroke-width="1.51"/><path d="M395,1074L372,1330L480,1298Z" fill="#b07f9c" stroke="#b07f9c" stroke-width="1.51"/><path d="M343,731L68,951L395,1074Z" fill="#84a3d5" stroke="#84a3d5" stroke-width="1.51"/><path d="M330,324L205,676L343,731Z" fill="#0c73be" stroke="#0c73be" stroke-width="1.51"/><path d="M205,676L68,951L343,731Z" fill="#5a8ac8" stroke="#5a8ac8" stroke-width="1.51"/><path d="M651,1622L791,1299L480,1298Z" fill="#f08e88" stroke="#f08e88" stroke-width="1.51"/><path d="M480,1298L791,1299L524,1109Z" fill="#e2a5aa" stroke="#e2a5aa" stroke-width="1.51"/><path d="M728,758L705,560L452,804Z" fill="#92afdf" stroke="#92afdf" stroke-width="1.51"/><path d="M853,816L705,560L728,758Z" fill="#b5b8d7" stroke="#b5b8d7" stroke-width="1.51"/><path d="M68,951L7,1036L395,1074Z" fill="#9baace" stroke="#9baace" stroke-width="1.51"/><path d="M-82,1007L7,1036L68,951Z" fill="#94a9cc" stroke="#94a9cc" stroke-width="1.51"/><path d="M791,1299L957,1170L642,988Z" fill="#ffbeb0" stroke="#ffbeb0" stroke-width="1.51"/><path d="M7,1036L128,1371L395,1074Z" fill="#a589a6" stroke="#a589a6" stroke-width="1.51"/><path d="M394,1661L651,1622L480,1298Z" fill="#c8707e" stroke="#c8707e" stroke-width="1.51"/><path d="M705,560L330,324L343,731Z" fill="#337dc6" stroke="#337dc6" stroke-width="1.51"/><path d="M1172,551L739,464L705,560Z" fill="#aa89a6" stroke="#aa89a6" stroke-width="1.51"/><path d="M205,676L-20,741L68,951Z" fill="#5988c2" stroke="#5988c2" stroke-width="1.51"/><path d="M68,459L-20,741L205,676Z" fill="#0c6eb6" stroke="#0c6eb6" stroke-width="1.51"/><path d="M7,1036L-67,1425L128,1371Z" fill="#a9697d" stroke="#a9697d" stroke-width="1.51"/><path d="M-154,939L-82,1007L68,951Z" fill="#8aa2c7" stroke="#8aa2c7" stroke-width="1.51"/><path d="M957,1170L1089,951L853,816Z" fill="#ffad9f" stroke="#ffad9f" stroke-width="1.51"/><path d="M853,816L1172,551L705,560Z" fill="#b0819e" stroke="#b0819e" stroke-width="1.51"/><path d="M-20,741L-154,939L68,951Z" fill="#7292c2" stroke="#7292c2" stroke-width="1.51"/><path d="M-82,1007L-67,1425L7,1036Z" fill="#9f839c" stroke="#9f839c" stroke-width="1.51"/><path d="M581,296L330,324L705,560Z" fill="#598ac8" stroke="#598ac8" stroke-width="1.51"/><path d="M330,324L68,459L205,676Z" fill="#0c6eb6" stroke="#0c6eb6" stroke-width="1.51"/><path d="M-20,741L-331,753L-154,939Z" fill="#5c82b6" stroke="#5c82b6" stroke-width="1.51"/><path d="M739,464L581,296L705,560Z" fill="#8ba8d6" stroke="#8ba8d6" stroke-width="1.51"/><path d="M394,1661L480,1298L372,1330Z" fill="#b45f78" stroke="#b45f78" stroke-width="1.51"/><path d="M1001,1419L1156,1121L957,1170Z" fill="#fc5e4b" stroke="#fc5e4b" stroke-width="1.51"/><path d="M957,1170L1156,1121L1089,951Z" fill="#ff8b76" stroke="#ff8b76" stroke-width="1.51"/><path d="M1001,1419L957,1170L791,1299Z" fill="#ff725c" stroke="#ff725c" stroke-width="1.51"/><path d="M945,1605L1001,1419L791,1299Z" fill="#fa5f4c" stroke="#fa5f4c" stroke-width="1.51"/><path d="M68,459L-21,481L-20,741Z" fill="#0b6ab0" stroke="#0b6ab0" stroke-width="1.51"/><path d="M3,95L-21,481L68,459Z" fill="#0b65a8" stroke="#0b65a8" stroke-width="1.51"/><path d="M128,1371L394,1661L372,1330Z" fill="#b05b73" stroke="#b05b73" stroke-width="1.51"/><path d="M128,1371L60,1553L394,1661Z" fill="#aa586e" stroke="#aa586e" stroke-width="1.51"/><path d="M-353,1426L-67,1425L-82,1007Z" fill="#a36071" stroke="#a36071" stroke-width="1.51"/><path d="M-67,1425L60,1553L128,1371Z" fill="#a85467" stroke="#a85467" stroke-width="1.51"/><path d="M1089,951L1220,764L853,816Z" fill="#e28384" stroke="#e28384" stroke-width="1.51"/><path d="M739,464L851,231L581,296Z" fill="#99aed4" stroke="#99aed4" stroke-width="1.51"/><path d="M1467,979L1220,764L1089,951Z" fill="#e78b86" stroke="#e78b86" stroke-width="1.51"/><path d="M651,1622L945,1605L791,1299Z" fill="#fe8772" stroke="#fe8772" stroke-width="1.51"/><path d="M1001,1419L1223,1381L1156,1121Z" fill="#f74437" stroke="#f74437" stroke-width="1.51"/><path d="M729,1840L945,1605L651,1622Z" fill="#f98c79" stroke="#f98c79" stroke-width="1.51"/><path d="M1220,764L1172,551L853,816Z" fill="#c36b7d" stroke="#c36b7d" stroke-width="1.51"/><path d="M330,324L3,95L68,459Z" fill="#0b68ac" stroke="#0b68ac" stroke-width="1.51"/><path d="M581,296L495,153L330,324Z" fill="#3779bc" stroke="#3779bc" stroke-width="1.51"/><path d="M851,231L495,153L581,296Z" fill="#7d9bca" stroke="#7d9bca" stroke-width="1.51"/><path d="M1141,294L851,231L739,464Z" fill="#a97892" stroke="#a97892" stroke-width="1.51"/><path d="M1156,1121L1467,979L1089,951Z" fill="#ff9a87" stroke="#ff9a87" stroke-width="1.51"/><path d="M1089,1708L1223,1381L1001,1419Z" fill="#ef2b28" stroke="#ef2b28" stroke-width="1.51"/><path d="M1223,1381L1293,1228L1156,1121Z" fill="#f45a48" stroke="#f45a48" stroke-width="1.51"/><path d="M-480,1222L-353,1426L-82,1007Z" fill="#9f7083" stroke="#9f7083" stroke-width="1.51"/><path d="M-21,481L-331,753L-20,741Z" fill="#1d6aae" stroke="#1d6aae" stroke-width="1.51"/><path d="M639,1873L729,1840L651,1622Z" fill="#ec9188" stroke="#ec9188" stroke-width="1.51"/><path d="M60,1553L254,1790L394,1661Z" fill="#a7586f" stroke="#a7586f" stroke-width="1.51"/><path d="M80,1747L254,1790L60,1553Z" fill="#a3556a" stroke="#a3556a" stroke-width="1.51"/><path d="M-67,1425L-20,1654L60,1553Z" fill="#a35164" stroke="#a35164" stroke-width="1.51"/><path d="M-406,1580L-20,1654L-67,1425Z" fill="#9e4c5d" stroke="#9e4c5d" stroke-width="1.51"/><path d="M-331,753L-372,816L-154,939Z" fill="#6386b7" stroke="#6386b7" stroke-width="1.51"/><path d="M-20,1654L80,1747L60,1553Z" fill="#a15266" stroke="#a15266" stroke-width="1.51"/><path d="M1172,551L1141,294L739,464Z" fill="#b15b72" stroke="#b15b72" stroke-width="1.51"/><path d="M1220,764L1302,574L1172,551Z" fill="#ae5e77" stroke="#ae5e77" stroke-width="1.51"/><path d="M1548,653L1302,574L1220,764Z" fill="#ae6077" stroke="#ae6077" stroke-width="1.51"/><path d="M945,1605L1089,1708L1001,1419Z" fill="#f1312b" stroke="#f1312b" stroke-width="1.51"/><path d="M639,1873L651,1622L394,1661Z" fill="#d07a81" stroke="#d07a81" stroke-width="1.51"/><path d="M495,153L353,60L330,324Z" fill="#0b6cb3" stroke="#0b6cb3" stroke-width="1.51"/><path d="M-21,481L-346,414L-331,753Z" fill="#0a64a6" stroke="#0a64a6" stroke-width="1.51"/><path d="M673,-120L353,60L495,153Z" fill="#477ab6" stroke="#477ab6" stroke-width="1.51"/><path d="M254,1790L639,1873L394,1661Z" fill="#aa5e77" stroke="#aa5e77" stroke-width="1.51"/><path d="M1261,308L1141,294L1172,551Z" fill="#a9586e" stroke="#a9586e" stroke-width="1.51"/><path d="M851,231L673,-120L495,153Z" fill="#849ec6" stroke="#849ec6" stroke-width="1.51"/><path d="M1076,1815L1089,1708L945,1605Z" fill="#eb2b28" stroke="#eb2b28" stroke-width="1.51"/><path d="M1621,1010L1467,979L1609,1275Z" fill="#e9816e" stroke="#e9816e" stroke-width="1.51"/><path d="M-480,1222L-82,1007L-154,939Z" fill="#9596b2" stroke="#9596b2" stroke-width="1.51"/><path d="M-20,1654L-45,1824L80,1747Z" fill="#9d5063" stroke="#9d5063" stroke-width="1.51"/><path d="M1293,1228L1467,979L1156,1121Z" fill="#f6806c" stroke="#f6806c" stroke-width="1.51"/><path d="M1467,979L1293,1228L1609,1275Z" fill="#eb6f5c" stroke="#eb6f5c" stroke-width="1.51"/><path d="M353,60L176,38L330,324Z" fill="#0b68ac" stroke="#0b68ac" stroke-width="1.51"/><path d="M176,38L3,95L330,324Z" fill="#0b65a8" stroke="#0b65a8" stroke-width="1.51"/><path d="M-331,753L-346,414L-372,816Z" fill="#1f69aa" stroke="#1f69aa" stroke-width="1.51"/><path d="M-168,91L-346,414L-21,481Z" fill="#095e9d" stroke="#095e9d" stroke-width="1.51"/><path d="M1302,574L1261,308L1172,551Z" fill="#a95971" stroke="#a95971" stroke-width="1.51"/><path d="M1141,294L1081,77L851,231Z" fill="#ab5568" stroke="#ab5568" stroke-width="1.51"/><path d="M1531,198L1261,308L1608,284Z" fill="#9a5167" stroke="#9a5167" stroke-width="1.51"/><path d="M-346,414L-480,1222L-372,816Z" fill="#5e83b6" stroke="#5e83b6" stroke-width="1.51"/><path d="M-372,816L-480,1222L-154,939Z" fill="#8ea2c2" stroke="#8ea2c2" stroke-width="1.51"/><path d="M-363,1822L-45,1824L-20,1654Z" fill="#974b5c" stroke="#974b5c" stroke-width="1.51"/><path d="M80,1747L141,2129L254,1790Z" fill="#9b5269" stroke="#9b5269" stroke-width="1.51"/><path d="M254,1790L409,2087L639,1873Z" fill="#a55c75" stroke="#a55c75" stroke-width="1.51"/><path d="M1405,1687L1609,1275L1223,1381Z" fill="#e32926" stroke="#e32926" stroke-width="1.51"/><path d="M729,1840L1076,1815L945,1605Z" fill="#ef5b49" stroke="#ef5b49" stroke-width="1.51"/><path d="M789,2073L1076,1815L729,1840Z" fill="#ea6b58" stroke="#ea6b58" stroke-width="1.51"/><path d="M1339,182L1081,77L1141,294Z" fill="#a45367" stroke="#a45367" stroke-width="1.51"/><path d="M353,60L304,-165L176,38Z" fill="#0a63a5" stroke="#0a63a5" stroke-width="1.51"/><path d="M-31,-203L-45,28L176,38Z" fill="#095b98" stroke="#095b98" stroke-width="1.51"/><path d="M176,38L-45,28L3,95Z" fill="#095e9d" stroke="#095e9d" stroke-width="1.51"/><path d="M3,95L-168,91L-21,481Z" fill="#0a5f9f" stroke="#0a5f9f" stroke-width="1.51"/><path d="M1081,77L1067,39L851,231Z" fill="#a9596b" stroke="#a9596b" stroke-width="1.51"/><path d="M1417,-131L1067,39L1081,77Z" fill="#9f4e5f" stroke="#9f4e5f" stroke-width="1.51"/><path d="M-480,1222L-406,1580L-353,1426Z" fill="#a24d5d" stroke="#a24d5d" stroke-width="1.51"/><path d="M-353,1426L-406,1580L-67,1425Z" fill="#9f4c5c" stroke="#9f4c5c" stroke-width="1.51"/><path d="M-45,28L-168,91L3,95Z" fill="#095b98" stroke="#095b98" stroke-width="1.51"/><path d="M1067,39L673,-120L851,231Z" fill="#9f7f96" stroke="#9f7f96" stroke-width="1.51"/><path d="M1261,308L1339,182L1141,294Z" fill="#a45569" stroke="#a45569" stroke-width="1.51"/><path d="M1467,979L1548,653L1220,764Z" fill="#c9767e" stroke="#c9767e" stroke-width="1.51"/><path d="M1467,979L1621,1010L1548,653Z" fill="#d38280" stroke="#d38280" stroke-width="1.51"/><path d="M1609,1275L1293,1228L1223,1381Z" fill="#ed4739" stroke="#ed4739" stroke-width="1.51"/><path d="M141,2129L409,2087L254,1790Z" fill="#99536c" stroke="#99536c" stroke-width="1.51"/><path d="M639,1873L789,2073L729,1840Z" fill="#f19988" stroke="#f19988" stroke-width="1.51"/><path d="M673,-120L304,-165L353,60Z" fill="#236aab" stroke="#236aab" stroke-width="1.51"/><path d="M-337,10L-357,60L-168,91Z" fill="#085791" stroke="#085791" stroke-width="1.51"/><path d="M489,2149L789,2073L639,1873Z" fill="#d68581" stroke="#d68581" stroke-width="1.51"/><path d="M1531,198L1339,182L1261,308Z" fill="#9e5167" stroke="#9e5167" stroke-width="1.51"/><path d="M1405,1687L1223,1381L1089,1708Z" fill="#e72b28" stroke="#e72b28" stroke-width="1.51"/><path d="M1253,1926L1089,1708L1076,1815Z" fill="#e22a27" stroke="#e22a27" stroke-width="1.51"/><path d="M1253,1926L1405,1687L1089,1708Z" fill="#e02a27" stroke="#e02a27" stroke-width="1.51"/><path d="M409,2087L489,2149L639,1873Z" fill="#b46a78" stroke="#b46a78" stroke-width="1.51"/><path d="M406,2320L489,2149L409,2087Z" fill="#9e5a72" stroke="#9e5a72" stroke-width="1.51"/><path d="M673,-120L295,-220L304,-165Z" fill="#1167aa" stroke="#1167aa" stroke-width="1.51"/><path d="M1067,39L758,-200L673,-120Z" fill="#99849b" stroke="#99849b" stroke-width="1.51"/><path d="M937,-435L758,-200L1139,-380Z" fill="#a26475" stroke="#a26475" stroke-width="1.51"/><path d="M304,-165L-31,-203L176,38Z" fill="#095e9d" stroke="#095e9d" stroke-width="1.51"/><path d="M659,-409L295,-220L673,-120Z" fill="#547eb4" stroke="#547eb4" stroke-width="1.51"/><path d="M-45,1824L141,2129L80,1747Z" fill="#984f64" stroke="#984f64" stroke-width="1.51"/><path d="M-406,1580L-363,1822L-20,1654Z" fill="#994b5b" stroke="#994b5b" stroke-width="1.51"/><path d="M-350,2218L-363,1822L-406,1580Z" fill="#914859" stroke="#914859" stroke-width="1.51"/><path d="M-66,2168L141,2129L-45,1824Z" fill="#904c60" stroke="#904c60" stroke-width="1.51"/><path d="M1056,2082L1253,1926L1076,1815Z" fill="#dd2724" stroke="#dd2724" stroke-width="1.51"/><path d="M1919,957L1717,554L1548,653Z" fill="#ac6576" stroke="#ac6576" stroke-width="1.51"/><path d="M1609,1275L1725,1054L1621,1010Z" fill="#e47966" stroke="#e47966" stroke-width="1.51"/><path d="M1696,1464L1725,1054L1609,1275Z" fill="#df4d3d" stroke="#df4d3d" stroke-width="1.51"/><path d="M-337,10L-168,91L-45,28Z" fill="#085791" stroke="#085791" stroke-width="1.51"/><path d="M-168,91L-357,60L-346,414Z" fill="#095b97" stroke="#095b97" stroke-width="1.51"/><path d="M-346,414L-439,-394L-480,1222Z" fill="#0960a0" stroke="#0960a0" stroke-width="1.51"/><path d="M789,2073L1056,2082L1076,1815Z" fill="#e34033" stroke="#e34033" stroke-width="1.51"/><path d="M1020,2200L1056,2082L789,2073Z" fill="#df4738" stroke="#df4738" stroke-width="1.51"/><path d="M-31,-203L-337,10L-45,28Z" fill="#08568f" stroke="#08568f" stroke-width="1.51"/><path d="M214,-308L-31,-203L304,-165Z" fill="#095e9d" stroke="#095e9d" stroke-width="1.51"/><path d="M1339,182L1417,-131L1081,77Z" fill="#9d4e60" stroke="#9d4e60" stroke-width="1.51"/><path d="M1608,284L1261,308L1302,574Z" fill="#a0556c" stroke="#a0556c" stroke-width="1.51"/><path d="M1608,284L1302,574L1548,653Z" fill="#9e566e" stroke="#9e566e" stroke-width="1.51"/><path d="M1919,957L1548,653L1621,1010Z" fill="#cd7f7f" stroke="#cd7f7f" stroke-width="1.51"/><path d="M1056,2082L1289,1986L1253,1926Z" fill="#d72724" stroke="#d72724" stroke-width="1.51"/><path d="M1253,1926L1289,1986L1405,1687Z" fill="#d92825" stroke="#d92825" stroke-width="1.51"/><path d="M1405,1687L1696,1464L1609,1275Z" fill="#da2623" stroke="#da2623" stroke-width="1.51"/><path d="M295,-220L214,-308L304,-165Z" fill="#0a61a2" stroke="#0a61a2" stroke-width="1.51"/><path d="M659,-409L214,-308L295,-220Z" fill="#0a65a8" stroke="#0a65a8" stroke-width="1.51"/><path d="M1664,1577L1696,1464L1405,1687Z" fill="#d52623" stroke="#d52623" stroke-width="1.51"/><path d="M1717,554L1608,284L1548,653Z" fill="#96536c" stroke="#96536c" stroke-width="1.51"/><path d="M650,2424L795,2232L489,2149Z" fill="#d68581" stroke="#d68581" stroke-width="1.51"/><path d="M489,2149L795,2232L789,2073Z" fill="#e28f84" stroke="#e28f84" stroke-width="1.51"/><path d="M1056,2082L1334,2327L1289,1986Z" fill="#d32623" stroke="#d32623" stroke-width="1.51"/><path d="M1778,1649L1664,1577L1681,1826Z" fill="#d02522" stroke="#d02522" stroke-width="1.51"/><path d="M-259,2074L-66,2168L-45,1824Z" fill="#8c4859" stroke="#8c4859" stroke-width="1.51"/><path d="M141,2129L406,2320L409,2087Z" fill="#97546c" stroke="#97546c" stroke-width="1.51"/><path d="M-363,1822L-259,2074L-45,1824Z" fill="#904858" stroke="#904858" stroke-width="1.51"/><path d="M795,2232L1020,2200L789,2073Z" fill="#e26854" stroke="#e26854" stroke-width="1.51"/><path d="M198,2373L406,2320L141,2129Z" fill="#95526a" stroke="#95526a" stroke-width="1.51"/><path d="M795,2232L650,2424L1020,2200Z" fill="#e47764" stroke="#e47764" stroke-width="1.51"/><path d="M1759,63L1465,-6L1531,198Z" fill="#8e4a5d" stroke="#8e4a5d" stroke-width="1.51"/><path d="M1531,198L1465,-6L1339,182Z" fill="#974e61" stroke="#974e61" stroke-width="1.51"/><path d="M758,-200L659,-409L673,-120Z" fill="#899ec1" stroke="#899ec1" stroke-width="1.51"/><path d="M937,-435L659,-409L758,-200Z" fill="#9691ac" stroke="#9691ac" stroke-width="1.51"/><path d="M1919,957L1621,1010L1725,1054Z" fill="#ea9484" stroke="#ea9484" stroke-width="1.51"/><path d="M1919,957L1805,501L1717,554Z" fill="#a05c73" stroke="#a05c73" stroke-width="1.51"/><path d="M1717,554L1805,501L1608,284Z" fill="#95526a" stroke="#95526a" stroke-width="1.51"/><path d="M1608,284L1759,63L1531,198Z" fill="#8f4c60" stroke="#8f4c60" stroke-width="1.51"/><path d="M1696,1464L1919,957L1725,1054Z" fill="#e26d5a" stroke="#e26d5a" stroke-width="1.51"/><path d="M1778,1649L1919,957L1696,1464Z" fill="#db2824" stroke="#db2824" stroke-width="1.51"/><path d="M1544,-273L1417,-131L1465,-6Z" fill="#904858" stroke="#904858" stroke-width="1.51"/><path d="M1465,-6L1417,-131L1339,182Z" fill="#964b5d" stroke="#964b5d" stroke-width="1.51"/><path d="M406,2320L650,2424L489,2149Z" fill="#b36a78" stroke="#b36a78" stroke-width="1.51"/><path d="M-55,2395L198,2373L141,2129Z" fill="#914d63" stroke="#914d63" stroke-width="1.51"/><path d="M-55,2395L141,2129L-66,2168Z" fill="#8e4b5f" stroke="#8e4b5f" stroke-width="1.51"/><path d="M1664,1577L1778,1649L1696,1464Z" fill="#d42623" stroke="#d42623" stroke-width="1.51"/><path d="M1681,1826L1664,1577L1405,1687Z" fill="#d22623" stroke="#d22623" stroke-width="1.51"/><path d="M1681,1826L1405,1687L1630,1921Z" fill="#ce2522" stroke="#ce2522" stroke-width="1.51"/><path d="M1139,-380L758,-200L1067,39Z" fill="#a45767" stroke="#a45767" stroke-width="1.51"/><path d="M1630,1921L1405,1687L1289,1986Z" fill="#d32623" stroke="#d32623" stroke-width="1.51"/><path d="M1670,2027L1630,1921L1289,1986Z" fill="#c82421" stroke="#c82421" stroke-width="1.51"/><path d="M198,2373L650,2424L406,2320Z" fill="#9a5771" stroke="#9a5771" stroke-width="1.51"/><path d="M1681,1826L1670,2027L1778,1649Z" fill="#ca2421" stroke="#ca2421" stroke-width="1.51"/><path d="M1670,2027L1289,1986L1619,2268Z" fill="#c4221f" stroke="#c4221f" stroke-width="1.51"/><path d="M1278,-337L1139,-380L1067,39Z" fill="#9e4c5c" stroke="#9e4c5c" stroke-width="1.51"/><path d="M-259,2074L-350,2218L-66,2168Z" fill="#884556" stroke="#884556" stroke-width="1.51"/><path d="M-363,1822L-350,2218L-259,2074Z" fill="#8a4656" stroke="#8a4656" stroke-width="1.51"/><path d="M-480,1222L-350,2218L-406,1580Z" fill="#994b5b" stroke="#994b5b" stroke-width="1.51"/><path d="M1417,-131L1278,-337L1067,39Z" fill="#9a4b5b" stroke="#9a4b5b" stroke-width="1.51"/><path d="M-350,2218L-55,2395L-66,2168Z" fill="#894557" stroke="#894557" stroke-width="1.51"/><path d="M198,2373L-55,2395L650,2424Z" fill="#95526a" stroke="#95526a" stroke-width="1.51"/><path d="M1417,-131L1544,-273L1278,-337Z" fill="#934959" stroke="#934959" stroke-width="1.51"/><path d="M1805,501L1759,63L1608,284Z" fill="#914e64" stroke="#914e64" stroke-width="1.51"/><path d="M1830,-402L1759,63L1805,501Z" fill="#8b485b" stroke="#8b485b" stroke-width="1.51"/><path d="M1630,1921L1670,2027L1681,1826Z" fill="#c62320" stroke="#c62320" stroke-width="1.51"/><path d="M1334,2327L1056,2082L1020,2200Z" fill="#d62623" stroke="#d62623" stroke-width="1.51"/><path d="M650,2424L1334,2327L1020,2200Z" fill="#dc3129" stroke="#dc3129" stroke-width="1.51"/><path d="M1741,-166L1544,-273L1465,-6Z" fill="#8a4656" stroke="#8a4656" stroke-width="1.51"/><path d="M1278,-337L1830,-402L1139,-380Z" fill="#934959" stroke="#934959" stroke-width="1.51"/><path d="M1139,-380L1830,-402L937,-435Z" fill="#984b5b" stroke="#984b5b" stroke-width="1.51"/><path d="M-31,-203L-439,-394L-337,10Z" fill="#08548c" stroke="#08548c" stroke-width="1.51"/><path d="M-337,10L-439,-394L-357,60Z" fill="#08548c" stroke="#08548c" stroke-width="1.51"/><path d="M-357,60L-439,-394L-346,414Z" fill="#085790" stroke="#085790" stroke-width="1.51"/><path d="M214,-308L-439,-394L-31,-203Z" fill="#085791" stroke="#085791" stroke-width="1.51"/><path d="M659,-409L-439,-394L214,-308Z" fill="#095e9c" stroke="#095e9c" stroke-width="1.51"/><path d="M937,-435L-439,-394L659,-409Z" fill="#0a65a8" stroke="#0a65a8" stroke-width="1.51"/><path d="M1759,63L1741,-166L1465,-6Z" fill="#894658" stroke="#894658" stroke-width="1.51"/><path d="M1830,-402L1741,-166L1759,63Z" fill="#884556" stroke="#884556" stroke-width="1.51"/><path d="M1670,2027L1717,2174L1778,1649Z" fill="#c5221f" stroke="#c5221f" stroke-width="1.51"/><path d="M1778,1649L1718,2227L1919,957Z" fill="#d32623" stroke="#d32623" stroke-width="1.51"/><path d="M1619,2268L1717,2174L1670,2027Z" fill="#bf211e" stroke="#bf211e" stroke-width="1.51"/><path d="M1334,2327L1619,2268L1289,1986Z" fill="#ca2421" stroke="#ca2421" stroke-width="1.51"/><path d="M1619,2268L1718,2227L1717,2174Z" fill="#bf211e" stroke="#bf211e" stroke-width="1.51"/><path d="M1717,2174L1718,2227L1778,1649Z" fill="#c2221f" stroke="#c2221f" stroke-width="1.51"/><path d="M1741,-166L1830,-402L1544,-273Z" fill="#884556" stroke="#884556" stroke-width="1.51"/><path d="M1544,-273L1830,-402L1278,-337Z" fill="#8c4657" stroke="#8c4657" stroke-width="1.51"/><path d="M1919,957L1830,-402L1805,501Z" fill="#935067" stroke="#935067" stroke-width="1.51"/></svg>