<svg xmlns="http://www.w3.org/2000/svg" width="1440" height="2000"><path d="M738,1087L597,911L667,1217Z" fill="#eedee1" stroke="#eedee1" stroke-width="1.51"/><path d="M597,911L340,1298L667,1217Z" fill="#caafc1" stroke="#caafc1" stroke-width="1.51"/><path d="M387,865L340,1298L597,911Z" fill="#a8b6dc" stroke="#a8b6dc" stroke-width="1.51"/><path d="M738,1087L913,926L597,911Z" fill="#f7eeee" stroke="#f7eeee" stroke-width="1.51"/><path d="M597,911L351,644L387,865Z" fill="#709bd7" stroke="#709bd7" stroke-width="1.51"/><path d="M1020,1073L913,926L738,1087Z" fill="#ffc0b3" stroke="#ffc0b3" stroke-width="1.51"/><path d="M932,1459L1020,1073L738,1087Z" fill="#ff937f" stroke="#ff937f" stroke-width="1.51"/><path d="M387,865L94,1252L340,1298Z" fill="#a593b2" stroke="#a593b2" stroke-width="1.51"/><path d="M520,433L351,644L597,911Z" fill="#538cd0" stroke="#538cd0" stroke-width="1.51"/><path d="M340,1298L488,1576L667,1217Z" fill="#cb7381" stroke="#cb7381" stroke-width="1.51"/><path d="M667,1217L932,1459L738,1087Z" fill="#ffac9b" stroke="#ffac9b" stroke-width="1.51"/><path d="M64,685L94,1252L387,865Z" fill="#88a4d2" stroke="#88a4d2" stroke-width="1.51"/><path d="M340,1298L95,1577L488,1576Z" fill="#af5c73" stroke="#af5c73" stroke-width="1.51"/><path d="M488,1576L932,1459L667,1217Z" fill="#ff9b8c" stroke="#ff9b8c" stroke-width="1.51"/><path d="M94,1252L124,1369L340,1298Z" fill="#af6a80" stroke="#af6a80" stroke-width="1.51"/><path d="M885,513L520,433L597,911Z" fill="#8cacdd" stroke="#8cacdd" stroke-width="1.51"/><path d="M1020,1073L1075,836L913,926Z" fill="#fc9c90" stroke="#fc9c90" stroke-width="1.51"/><path d="M1223,685L1075,836L1330,997Z" fill="#dc8283" stroke="#dc8283" stroke-width="1.51"/><path d="M488,1576L500,1644L932,1459Z" fill="#ec8d87" stroke="#ec8d87" stroke-width="1.51"/><path d="M206,1824L500,1644L488,1576Z" fill="#ac5d76" stroke="#ac5d76" stroke-width="1.51"/><path d="M351,644L64,685L387,865Z" fill="#4b85c7" stroke="#4b85c7" stroke-width="1.51"/><path d="M885,513L597,911L913,926Z" fill="#cbbcd0" stroke="#cbbcd0" stroke-width="1.51"/><path d="M351,644L82,397L64,685Z" fill="#0c70b9" stroke="#0c70b9" stroke-width="1.51"/><path d="M1075,836L885,513L913,926Z" fill="#d18995" stroke="#d18995" stroke-width="1.51"/><path d="M124,1369L95,1577L340,1298Z" fill="#ae596e" stroke="#ae596e" stroke-width="1.51"/><path d="M-479,1577L95,1577L124,1369Z" fill="#a34f61" stroke="#a34f61" stroke-width="1.51"/><path d="M-479,1577L124,1369L94,1252Z" fill="#a55061" stroke="#a55061" stroke-width="1.51"/><path d="M64,685L-90,764L94,1252Z" fill="#7b99c7" stroke="#7b99c7" stroke-width="1.51"/><path d="M-312,567L-90,764L64,685Z" fill="#2d6fb0" stroke="#2d6fb0" stroke-width="1.51"/><path d="M520,433L338,360L351,644Z" fill="#0c74c0" stroke="#0c74c0" stroke-width="1.51"/><path d="M496,192L338,360L520,433Z" fill="#2d78bf" stroke="#2d78bf" stroke-width="1.51"/><path d="M1330,997L1075,836L1020,1073Z" fill="#fc998b" stroke="#fc998b" stroke-width="1.51"/><path d="M500,1644L927,1750L932,1459Z" fill="#fc8975" stroke="#fc8975" stroke-width="1.51"/><path d="M562,1926L927,1750L500,1644Z" fill="#eb9087" stroke="#eb9087" stroke-width="1.51"/><path d="M1330,997L1020,1073L1233,1478Z" fill="#f86f5b" stroke="#f86f5b" stroke-width="1.51"/><path d="M1075,836L1223,685L885,513Z" fill="#c0687b" stroke="#c0687b" stroke-width="1.51"/><path d="M1233,1478L1020,1073L932,1459Z" fill="#f83e33" stroke="#f83e33" stroke-width="1.51"/><path d="M927,1750L1233,1478L932,1459Z" fill="#f02c29" stroke="#f02c29" stroke-width="1.51"/><path d="M95,1577L206,1824L488,1576Z" fill="#a95970" stroke="#a95970" stroke-width="1.51"/><path d="M338,360L82,397L351,644Z" fill="#0c70b9" stroke="#0c70b9" stroke-width="1.51"/><path d="M206,1824L562,1926L500,1644Z" fill="#a95c76" stroke="#a95c76" stroke-width="1.51"/><path d="M-90,764L-294,991L94,1252Z" fill="#92a5c7" stroke="#92a5c7" stroke-width="1.51"/><path d="M95,1577L-73,1824L206,1824Z" fill="#a15367" stroke="#a15367" stroke-width="1.51"/><path d="M-312,567L-294,991L-90,764Z" fill="#537db3" stroke="#537db3" stroke-width="1.51"/><path d="M914,192L520,433L885,513Z" fill="#a0a2c5" stroke="#a0a2c5" stroke-width="1.51"/><path d="M914,192L496,192L520,433Z" fill="#7f9ecd" stroke="#7f9ecd" stroke-width="1.51"/><path d="M338,360L364,-70L82,397Z" fill="#0c6ab0" stroke="#0c6ab0" stroke-width="1.51"/><path d="M1223,685L1301,150L885,513Z" fill="#ae5a72" stroke="#ae5a72" stroke-width="1.51"/><path d="M1330,997L1344,631L1223,685Z" fill="#cb757f" stroke="#cb757f" stroke-width="1.51"/><path d="M-294,991L-344,1071L94,1252Z" fill="#988ca5" stroke="#988ca5" stroke-width="1.51"/><path d="M1330,997L1486,1070L1344,631Z" fill="#e28a85" stroke="#e28a85" stroke-width="1.51"/><path d="M1233,1478L1486,1070L1330,997Z" fill="#f16d5a" stroke="#f16d5a" stroke-width="1.51"/><path d="M562,1926L944,1939L927,1750Z" fill="#f07e6b" stroke="#f07e6b" stroke-width="1.51"/><path d="M927,1750L1219,1791L1233,1478Z" fill="#ea2b28" stroke="#ea2b28" stroke-width="1.51"/><path d="M1301,150L914,192L885,513Z" fill="#ae586d" stroke="#ae586d" stroke-width="1.51"/><path d="M1233,1478L1616,1513L1486,1070Z" fill="#e6332b" stroke="#e6332b" stroke-width="1.51"/><path d="M944,1939L1219,1791L927,1750Z" fill="#e72a27" stroke="#e72a27" stroke-width="1.51"/><path d="M206,1824L377,2095L562,1926Z" fill="#a05872" stroke="#a05872" stroke-width="1.51"/><path d="M-479,1577L-73,1824L95,1577Z" fill="#9c4c5d" stroke="#9c4c5d" stroke-width="1.51"/><path d="M-73,1824L18,1909L206,1824Z" fill="#9b5165" stroke="#9b5165" stroke-width="1.51"/><path d="M961,2300L1032,2137L944,1939Z" fill="#de3c31" stroke="#de3c31" stroke-width="1.51"/><path d="M-326,125L-312,567L82,397Z" fill="#09609f" stroke="#09609f" stroke-width="1.51"/><path d="M82,397L-312,567L64,685Z" fill="#0b68ad" stroke="#0b68ad" stroke-width="1.51"/><path d="M-294,991L-312,567L-344,1071Z" fill="#708eba" stroke="#708eba" stroke-width="1.51"/><path d="M1219,1791L1409,1674L1233,1478Z" fill="#e42a27" stroke="#e42a27" stroke-width="1.51"/><path d="M18,1909L377,2095L206,1824Z" fill="#9c546a" stroke="#9c546a" stroke-width="1.51"/><path d="M496,192L364,-70L338,360Z" fill="#0b6cb4" stroke="#0b6cb4" stroke-width="1.51"/><path d="M914,192L580,-36L496,192Z" fill="#829ec9" stroke="#829ec9" stroke-width="1.51"/><path d="M1409,1674L1616,1513L1233,1478Z" fill="#e02926" stroke="#e02926" stroke-width="1.51"/><path d="M944,1939L1032,2137L1219,1791Z" fill="#e12825" stroke="#e12825" stroke-width="1.51"/><path d="M1219,1791L1601,2056L1409,1674Z" fill="#d72824" stroke="#d72824" stroke-width="1.51"/><path d="M1409,1674L1781,1838L1616,1513Z" fill="#d32623" stroke="#d32623" stroke-width="1.51"/><path d="M533,2256L944,1939L562,1926Z" fill="#e38e84" stroke="#e38e84" stroke-width="1.51"/><path d="M-312,567L-479,1577L-344,1071Z" fill="#9693ae" stroke="#9693ae" stroke-width="1.51"/><path d="M-344,1071L-479,1577L94,1252Z" fill="#a35f70" stroke="#a35f70" stroke-width="1.51"/><path d="M-73,1824L-387,2025L18,1909Z" fill="#92495a" stroke="#92495a" stroke-width="1.51"/><path d="M580,-36L364,-70L496,192Z" fill="#3a75b5" stroke="#3a75b5" stroke-width="1.51"/><path d="M-479,1577L-322,1833L-73,1824Z" fill="#984a5b" stroke="#984a5b" stroke-width="1.51"/><path d="M205,2439L533,2256L377,2095Z" fill="#98556f" stroke="#98556f" stroke-width="1.51"/><path d="M1344,631L1301,150L1223,685Z" fill="#a85a72" stroke="#a85a72" stroke-width="1.51"/><path d="M914,192L985,-145L580,-36Z" fill="#9c89a3" stroke="#9c89a3" stroke-width="1.51"/><path d="M1754,698L1484,339L1344,631Z" fill="#9d5770" stroke="#9d5770" stroke-width="1.51"/><path d="M1754,698L1344,631L1772,747Z" fill="#a86275" stroke="#a86275" stroke-width="1.51"/><path d="M205,2439L377,2095L36,2432Z" fill="#945168" stroke="#945168" stroke-width="1.51"/><path d="M377,2095L533,2256L562,1926Z" fill="#ae6677" stroke="#ae6677" stroke-width="1.51"/><path d="M1484,339L1301,150L1344,631Z" fill="#a2566d" stroke="#a2566d" stroke-width="1.51"/><path d="M1772,747L1344,631L1486,1070Z" fill="#c7787e" stroke="#c7787e" stroke-width="1.51"/><path d="M1846,1018L1772,747L1486,1070Z" fill="#de8c83" stroke="#de8c83" stroke-width="1.51"/><path d="M1885,1339L1846,1018L1486,1070Z" fill="#e37360" stroke="#e37360" stroke-width="1.51"/><path d="M533,2256L961,2300L944,1939Z" fill="#e47967" stroke="#e47967" stroke-width="1.51"/><path d="M1331,2350L1601,2056L1219,1791Z" fill="#ce2522" stroke="#ce2522" stroke-width="1.51"/><path d="M580,-36L395,-283L364,-70Z" fill="#256bab" stroke="#256bab" stroke-width="1.51"/><path d="M1301,150L985,-145L914,192Z" fill="#a75264" stroke="#a75264" stroke-width="1.51"/><path d="M-301,62L-326,125L82,397Z" fill="#095c99" stroke="#095c99" stroke-width="1.51"/><path d="M-312,567L-429,-443L-479,1577Z" fill="#0a64a7" stroke="#0a64a7" stroke-width="1.51"/><path d="M-17,-177L-301,62L82,397Z" fill="#095c9a" stroke="#095c9a" stroke-width="1.51"/><path d="M1781,1838L1885,1339L1616,1513Z" fill="#d52623" stroke="#d52623" stroke-width="1.51"/><path d="M1616,1513L1885,1339L1486,1070Z" fill="#df4335" stroke="#df4335" stroke-width="1.51"/><path d="M985,-145L849,-236L580,-36Z" fill="#988ba5" stroke="#988ba5" stroke-width="1.51"/><path d="M364,-70L-17,-177L82,397Z" fill="#0a62a3" stroke="#0a62a3" stroke-width="1.51"/><path d="M-322,1833L-387,2025L-73,1824Z" fill="#924859" stroke="#924859" stroke-width="1.51"/><path d="M-479,1577L-387,2025L-322,1833Z" fill="#964a5a" stroke="#964a5a" stroke-width="1.51"/><path d="M849,-236L395,-283L580,-36Z" fill="#6c8cb9" stroke="#6c8cb9" stroke-width="1.51"/><path d="M97,-357L-17,-177L364,-70Z" fill="#095e9d" stroke="#095e9d" stroke-width="1.51"/><path d="M1368,-199L1301,150L1714,-160Z" fill="#92495b" stroke="#92495b" stroke-width="1.51"/><path d="M1368,-199L1147,-180L1301,150Z" fill="#9b4c5d" stroke="#9b4c5d" stroke-width="1.51"/><path d="M1301,150L1147,-180L985,-145Z" fill="#a04e5e" stroke="#a04e5e" stroke-width="1.51"/><path d="M985,-145L1039,-359L849,-236Z" fill="#a36071" stroke="#a36071" stroke-width="1.51"/><path d="M36,2432L377,2095L18,1909Z" fill="#924f65" stroke="#924f65" stroke-width="1.51"/><path d="M533,2256L205,2439L961,2300Z" fill="#c0757b" stroke="#c0757b" stroke-width="1.51"/><path d="M1331,2350L1219,1791L1032,2137Z" fill="#d62623" stroke="#d62623" stroke-width="1.51"/><path d="M1601,2056L1781,1838L1409,1674Z" fill="#cc2421" stroke="#cc2421" stroke-width="1.51"/><path d="M-334,2328L36,2432L18,1909Z" fill="#8b475a" stroke="#8b475a" stroke-width="1.51"/><path d="M1233,2481L1331,2350L961,2300Z" fill="#d52623" stroke="#d52623" stroke-width="1.51"/><path d="M961,2300L1331,2350L1032,2137Z" fill="#d72623" stroke="#d72623" stroke-width="1.51"/><path d="M1714,-160L1301,150L1484,339Z" fill="#944d61" stroke="#944d61" stroke-width="1.51"/><path d="M1147,-180L1039,-359L985,-145Z" fill="#a24d5d" stroke="#a24d5d" stroke-width="1.51"/><path d="M429,-455L97,-357L395,-283Z" fill="#0a63a4" stroke="#0a63a4" stroke-width="1.51"/><path d="M395,-283L97,-357L364,-70Z" fill="#0a62a3" stroke="#0a62a3" stroke-width="1.51"/><path d="M-17,-177L-429,-443L-301,62Z" fill="#08548c" stroke="#08548c" stroke-width="1.51"/><path d="M429,-455L395,-283L849,-236Z" fill="#5a81b5" stroke="#5a81b5" stroke-width="1.51"/><path d="M1368,-199L1039,-359L1147,-180Z" fill="#9d4c5c" stroke="#9d4c5c" stroke-width="1.51"/><path d="M1039,-359L429,-455L849,-236Z" fill="#9695b0" stroke="#9695b0" stroke-width="1.51"/><path d="M-479,1577L-334,2328L-387,2025Z" fill="#8e4758" stroke="#8e4758" stroke-width="1.51"/><path d="M-387,2025L-334,2328L18,1909Z" fill="#894556" stroke="#894556" stroke-width="1.51"/><path d="M205,2439L1233,2481L961,2300Z" fill="#e57d6b" stroke="#e57d6b" stroke-width="1.51"/><path d="M1671,2424L1865,2052L1601,2056Z" fill="#bf211e" stroke="#bf211e" stroke-width="1.51"/><path d="M1885,1339L1844,175L1846,1018Z" fill="#c87b7d" stroke="#c87b7d" stroke-width="1.51"/><path d="M1846,1018L1844,175L1772,747Z" fill="#9e5a72" stroke="#9e5a72" stroke-width="1.51"/><path d="M1772,747L1844,175L1754,698Z" fill="#98556e" stroke="#98556e" stroke-width="1.51"/><path d="M1754,698L1844,175L1484,339Z" fill="#955269" stroke="#955269" stroke-width="1.51"/><path d="M1671,2424L1601,2056L1331,2350Z" fill="#c3221f" stroke="#c3221f" stroke-width="1.51"/><path d="M1601,2056L1865,2052L1781,1838Z" fill="#c5221f" stroke="#c5221f" stroke-width="1.51"/><path d="M1781,1838L1865,2052L1885,1339Z" fill="#cf2522" stroke="#cf2522" stroke-width="1.51"/><path d="M1844,175L1714,-160L1484,339Z" fill="#8e4b5f" stroke="#8e4b5f" stroke-width="1.51"/><path d="M1368,-199L1591,-494L1039,-359Z" fill="#974a5b" stroke="#974a5b" stroke-width="1.51"/><path d="M1233,2481L1671,2424L1331,2350Z" fill="#ca2421" stroke="#ca2421" stroke-width="1.51"/><path d="M97,-357L-429,-443L-17,-177Z" fill="#08568f" stroke="#08568f" stroke-width="1.51"/><path d="M-301,62L-429,-443L-326,125Z" fill="#08558d" stroke="#08558d" stroke-width="1.51"/><path d="M-326,125L-429,-443L-312,567Z" fill="#095994" stroke="#095994" stroke-width="1.51"/><path d="M429,-455L-429,-443L97,-357Z" fill="#095a97" stroke="#095a97" stroke-width="1.51"/><path d="M1844,175L1706,-358L1714,-160Z" fill="#884556" stroke="#884556" stroke-width="1.51"/><path d="M1714,-160L1706,-358L1368,-199Z" fill="#894556" stroke="#894556" stroke-width="1.51"/><path d="M1039,-359L1591,-494L429,-455Z" fill="#a34d5d" stroke="#a34d5d" stroke-width="1.51"/><path d="M1706,-358L1591,-494L1368,-199Z" fill="#8b4657" stroke="#8b4657" stroke-width="1.51"/><path d="M429,-455L1591,-494L-429,-443Z" fill="#507cb3" stroke="#507cb3" stroke-width="1.51"/></svg>